<svg width="17" height="17" viewBox="0 0 17 17" fill="none" xmlns="http://www.w3.org/2000/svg">
<g clip-path="url(#clip0_13_12869)">
<path fill-rule="evenodd" clip-rule="evenodd" d="M6.35089 1.5788C6.08567 1.5788 5.83132 1.68415 5.64378 1.87169C5.45625 2.05923 5.35089 2.31358 5.35089 2.5788V12.5788C5.35089 12.844 5.45625 13.0984 5.64378 13.2859C5.83132 13.4734 6.08567 13.5788 6.35089 13.5788H12.3509C12.6161 13.5788 12.8705 13.4734 13.058 13.2859C13.2455 13.0984 13.3509 12.844 13.3509 12.5788V2.5788C13.3509 2.31358 13.2455 2.05923 13.058 1.87169C12.8705 1.68415 12.6161 1.5788 12.3509 1.5788H6.35089ZM4.35089 2.5788C4.35089 2.04836 4.5616 1.53966 4.93668 1.16458C5.31175 0.78951 5.82046 0.578796 6.35089 0.578796L12.3509 0.578796C12.8813 0.578796 13.39 0.78951 13.7651 1.16458C14.1402 1.53966 14.3509 2.04836 14.3509 2.5788V12.5788C14.3509 13.1092 14.1402 13.6179 13.7651 13.993C13.39 14.3681 12.8813 14.5788 12.3509 14.5788H6.35089C5.82046 14.5788 5.31175 14.3681 4.93668 13.993C4.5616 13.6179 4.35089 13.1092 4.35089 12.5788V2.5788Z" fill="#60CDFF"/>
<path d="M5.85089 15.5788C5.18801 15.5783 4.55244 15.3147 4.08371 14.846C3.61498 14.3773 3.35142 13.7417 3.35089 13.0788V2.85681C3.04792 3.03103 2.79606 3.28182 2.62055 3.58405C2.44504 3.88627 2.35205 4.22932 2.35089 4.57881V13.0788C2.35195 14.0067 2.72104 14.8964 3.37719 15.5525C4.03333 16.2087 4.92296 16.5778 5.85089 16.5788H10.3509C10.7004 16.5777 11.0434 16.4847 11.3457 16.3092C11.6479 16.1336 11.8987 15.8818 12.0729 15.5788H5.85089Z" fill="#E0DFDF"/>
</g>
<defs>
<clipPath id="clip0_13_12869">
<rect width="16" height="16" fill="white" transform="translate(0.350891 0.578796)"/>
</clipPath>
</defs>
</svg>
