<svg width="17" height="17" viewBox="0 0 17 17" fill="none" xmlns="http://www.w3.org/2000/svg">
<g clip-path="url(#clip0_13_12863)">
<path fill-rule="evenodd" clip-rule="evenodd" d="M3.5789 0.658812C3.69018 0.586888 3.82546 0.562076 3.95502 0.589826C4.08459 0.617576 4.19784 0.695619 4.2699 0.806812L11.0909 11.2988C11.1267 11.3538 11.1514 11.4154 11.1635 11.4799C11.1755 11.5445 11.1748 11.6108 11.1612 11.675C11.1477 11.7393 11.1216 11.8003 11.0845 11.8544C11.0473 11.9086 10.9999 11.955 10.9449 11.9908C10.8899 12.0267 10.8283 12.0513 10.7638 12.0634C10.6992 12.0755 10.6329 12.0747 10.5687 12.0611C10.5044 12.0476 10.4434 12.0215 10.3893 11.9844C10.3351 11.9473 10.2887 11.8998 10.2529 11.8448L3.4309 1.35081C3.35888 1.23965 3.33391 1.10446 3.36147 0.974906C3.38903 0.845355 3.46687 0.732032 3.5779 0.659812L3.5789 0.658812Z" fill="#E0DFDF"/>
<path fill-rule="evenodd" clip-rule="evenodd" d="M8.20489 7.32183L5.60989 11.3218C5.53963 11.4331 5.51606 11.5675 5.54427 11.696C5.57249 11.8245 5.65022 11.9368 5.76062 12.0083C5.87102 12.0799 6.00518 12.1051 6.13402 12.0784C6.26286 12.0517 6.37599 11.9754 6.44889 11.8658L8.80089 8.23983L8.20489 7.32183ZM9.54489 7.09183L13.2709 1.35183C13.3088 1.29683 13.3353 1.2348 13.3489 1.16939C13.3624 1.10398 13.3627 1.03652 13.3498 0.970987C13.3368 0.905457 13.3108 0.843189 13.2734 0.787859C13.236 0.732529 13.1879 0.685259 13.1319 0.64884C13.0759 0.612421 13.0131 0.587593 12.9474 0.57582C12.8816 0.564047 12.8142 0.565569 12.749 0.580296C12.6839 0.595023 12.6223 0.622656 12.568 0.661563C12.5137 0.700471 12.4678 0.749864 12.4329 0.806826L8.94889 6.17383L9.54589 7.09183H9.54489Z" fill="#E0DFDF"/>
<path fill-rule="evenodd" clip-rule="evenodd" d="M4.35089 11.5788C3.82046 11.5788 3.31175 11.7895 2.93668 12.1646C2.5616 12.5397 2.35089 13.0484 2.35089 13.5788C2.35089 14.1092 2.5616 14.6179 2.93668 14.993C3.31175 15.3681 3.82046 15.5788 4.35089 15.5788C4.88132 15.5788 5.39003 15.3681 5.7651 14.993C6.14018 14.6179 6.35089 14.1092 6.35089 13.5788C6.35089 13.0484 6.14018 12.5397 5.7651 12.1646C5.39003 11.7895 4.88132 11.5788 4.35089 11.5788ZM1.35089 13.5788C1.35089 13.1848 1.42849 12.7947 1.57925 12.4307C1.73002 12.0668 1.95099 11.7361 2.22957 11.4575C2.50815 11.1789 2.83886 10.9579 3.20284 10.8072C3.56682 10.6564 3.95693 10.5788 4.35089 10.5788C4.74486 10.5788 5.13496 10.6564 5.49894 10.8072C5.86292 10.9579 6.19364 11.1789 6.47221 11.4575C6.75079 11.7361 6.97177 12.0668 7.12253 12.4307C7.27329 12.7947 7.35089 13.1848 7.35089 13.5788C7.35089 14.3744 7.03482 15.1375 6.47221 15.7001C5.9096 16.2627 5.14654 16.5788 4.35089 16.5788C3.55524 16.5788 2.79218 16.2627 2.22957 15.7001C1.66696 15.1375 1.35089 14.3744 1.35089 13.5788ZM12.3509 11.5788C11.8205 11.5788 11.3118 11.7895 10.9367 12.1646C10.5616 12.5397 10.3509 13.0484 10.3509 13.5788C10.3509 14.1092 10.5616 14.6179 10.9367 14.993C11.3118 15.3681 11.8205 15.5788 12.3509 15.5788C12.8813 15.5788 13.39 15.3681 13.7651 14.993C14.1402 14.6179 14.3509 14.1092 14.3509 13.5788C14.3509 13.0484 14.1402 12.5397 13.7651 12.1646C13.39 11.7895 12.8813 11.5788 12.3509 11.5788ZM9.35089 13.5788C9.35089 12.7831 9.66696 12.0201 10.2296 11.4575C10.7922 10.8949 11.5552 10.5788 12.3509 10.5788C13.1465 10.5788 13.9096 10.8949 14.4722 11.4575C15.0348 12.0201 15.3509 12.7831 15.3509 13.5788C15.3509 14.3744 15.0348 15.1375 14.4722 15.7001C13.9096 16.2627 13.1465 16.5788 12.3509 16.5788C11.5552 16.5788 10.7922 16.2627 10.2296 15.7001C9.66696 15.1375 9.35089 14.3744 9.35089 13.5788Z" fill="#60CDFF"/>
</g>
<defs>
<clipPath id="clip0_13_12863">
<rect width="16" height="16" fill="white" transform="translate(0.350891 0.578796)"/>
</clipPath>
</defs>
</svg>
