<svg width="17" height="17" viewBox="0 0 17 17" fill="none" xmlns="http://www.w3.org/2000/svg">
<path fill-rule="evenodd" clip-rule="evenodd" d="M3.35089 3.5788C3.08567 3.5788 2.83132 3.68415 2.64378 3.87169C2.45625 4.05923 2.35089 4.31358 2.35089 4.5788V13.5788C2.35089 13.844 2.45625 14.0984 2.64378 14.2859C2.83132 14.4734 3.08567 14.5788 3.35089 14.5788H12.3509C12.6161 14.5788 12.8705 14.4734 13.058 14.2859C13.2455 14.0984 13.3509 13.844 13.3509 13.5788V12.0788C13.3509 11.9462 13.4036 11.819 13.4973 11.7252C13.5911 11.6315 13.7183 11.5788 13.8509 11.5788C13.9835 11.5788 14.1107 11.6315 14.2044 11.7252C14.2982 11.819 14.3509 11.9462 14.3509 12.0788V13.5788C14.3509 14.1092 14.1402 14.6179 13.7651 14.993C13.39 15.3681 12.8813 15.5788 12.3509 15.5788H3.35089C2.82046 15.5788 2.31175 15.3681 1.93668 14.993C1.5616 14.6179 1.35089 14.1092 1.35089 13.5788V4.5788C1.35089 4.04836 1.5616 3.53966 1.93668 3.16458C2.31175 2.78951 2.82046 2.5788 3.35089 2.5788H6.85089C6.9835 2.5788 7.11068 2.63147 7.20444 2.72524C7.29821 2.81901 7.35089 2.94619 7.35089 3.0788C7.35089 3.2114 7.29821 3.33858 7.20444 3.43235C7.11068 3.52612 6.9835 3.5788 6.85089 3.5788H3.35089Z" fill="#E0DFDF"/>
<path fill-rule="evenodd" clip-rule="evenodd" d="M11.3029 11.4168L15.7999 6.99378L15.8579 6.92878C15.9422 6.81536 15.9827 6.67535 15.972 6.53446C15.9614 6.39356 15.9003 6.26124 15.7999 6.16178L11.3029 1.74078L11.2409 1.68778C11.1561 1.62676 11.0559 1.59061 10.9516 1.58338C10.8474 1.57615 10.7432 1.59812 10.6507 1.64684C10.5583 1.69556 10.4813 1.76909 10.4283 1.85917C10.3753 1.94924 10.3485 2.05231 10.3509 2.15678V4.28678L10.1269 4.30178C6.56589 4.58478 4.47889 6.83678 3.97889 10.9238C3.96643 11.0396 3.98948 11.1564 4.04499 11.2588C4.1005 11.3612 4.18585 11.4443 4.28969 11.497C4.39353 11.5497 4.51096 11.5696 4.62638 11.5541C4.7418 11.5385 4.84975 11.4882 4.93589 11.4098C6.17284 10.2453 7.69617 9.42933 9.35089 9.04478C9.59617 8.99368 9.8438 8.95464 10.0929 8.92778L10.3509 8.90478V10.9998L10.3559 11.0828C10.3684 11.1865 10.4096 11.2846 10.4749 11.3662C10.5403 11.4477 10.6271 11.5093 10.7256 11.544C10.8241 11.5788 10.9304 11.5852 11.0324 11.5628C11.1344 11.5403 11.2281 11.4897 11.3029 11.4168ZM10.2009 5.29878L11.3509 5.22178V3.18878L14.7969 6.57678L11.3509 9.96878V7.80978L9.99489 7.93178H9.98689C8.22533 8.14607 6.55603 8.83842 5.15989 9.93378C5.37026 8.79784 5.88015 7.73869 6.63689 6.86578C7.57691 5.90188 8.85415 5.34015 10.1999 5.29878H10.2009Z" fill="#60CDFF"/>
</svg>
