<svg width="17" height="17" viewBox="0 0 17 17" fill="none" xmlns="http://www.w3.org/2000/svg">
<g clip-path="url(#clip0_13_12853)">
<path fill-rule="evenodd" clip-rule="evenodd" d="M8.35089 1.64546C6.51206 1.64546 4.74854 2.37594 3.44828 3.67619C2.14803 4.97644 1.41756 6.73996 1.41756 8.5788C1.41756 10.4176 2.14803 12.1812 3.44828 13.4814C4.74854 14.7817 6.51206 15.5121 8.35089 15.5121C10.1897 15.5121 11.9532 14.7817 13.2535 13.4814C14.5538 12.1812 15.2842 10.4176 15.2842 8.5788C15.2842 6.73996 14.5538 4.97644 13.2535 3.67619C11.9532 2.37594 10.1897 1.64546 8.35089 1.64546ZM0.350891 8.5788C0.350891 6.45706 1.19375 4.42223 2.69404 2.92194C4.19433 1.42165 6.22916 0.578796 8.35089 0.578796C10.4726 0.578796 12.5075 1.42165 14.0077 2.92194C15.508 4.42223 16.3509 6.45706 16.3509 8.5788C16.3509 10.7005 15.508 12.7354 14.0077 14.2357C12.5075 15.7359 10.4726 16.5788 8.35089 16.5788C6.22916 16.5788 4.19433 15.7359 2.69404 14.2357C1.19375 12.7354 0.350891 10.7005 0.350891 8.5788H0.350891Z" fill="#E0DFDF"/>
<path fill-rule="evenodd" clip-rule="evenodd" d="M8.35089 5.0788C8.4835 5.0788 8.61068 5.13147 8.70444 5.22524C8.79821 5.31901 8.85089 5.44619 8.85089 5.5788V8.0788H11.3509C11.4835 8.0788 11.6107 8.13147 11.7044 8.22524C11.7982 8.31901 11.8509 8.44619 11.8509 8.5788C11.8509 8.7114 11.7982 8.83858 11.7044 8.93235C11.6107 9.02612 11.4835 9.0788 11.3509 9.0788H8.85089V11.5788C8.85089 11.7114 8.79821 11.8386 8.70444 11.9324C8.61068 12.0261 8.4835 12.0788 8.35089 12.0788C8.21828 12.0788 8.09111 12.0261 7.99734 11.9324C7.90357 11.8386 7.85089 11.7114 7.85089 11.5788V9.0788H5.35089C5.21828 9.0788 5.09111 9.02612 4.99734 8.93235C4.90357 8.83858 4.85089 8.7114 4.85089 8.5788C4.85089 8.44619 4.90357 8.31901 4.99734 8.22524C5.09111 8.13147 5.21828 8.0788 5.35089 8.0788H7.85089V5.5788C7.85089 5.44619 7.90357 5.31901 7.99734 5.22524C8.09111 5.13147 8.21828 5.0788 8.35089 5.0788Z" fill="#60CDFF"/>
</g>
<defs>
<clipPath id="clip0_13_12853">
<rect width="16" height="16" fill="white" transform="translate(0.350891 0.578796)"/>
</clipPath>
</defs>
</svg>
