<svg width="17" height="17" viewBox="0 0 17 17" fill="none" xmlns="http://www.w3.org/2000/svg">
<g clip-path="url(#clip0_13_12874)">
<path fill-rule="evenodd" clip-rule="evenodd" d="M2.85089 2.5788C2.71828 2.5788 2.59111 2.63147 2.49734 2.72524C2.40357 2.81901 2.35089 2.94619 2.35089 3.0788V15.0788C2.35089 15.2114 2.40357 15.3386 2.49734 15.4324C2.59111 15.5261 2.71828 15.5788 2.85089 15.5788H5.85089C5.9835 15.5788 6.11068 15.6315 6.20444 15.7252C6.29821 15.819 6.35089 15.9462 6.35089 16.0788C6.35089 16.2114 6.29821 16.3386 6.20444 16.4324C6.11068 16.5261 5.9835 16.5788 5.85089 16.5788H2.85089C2.45307 16.5788 2.07154 16.4208 1.79023 16.1395C1.50893 15.8582 1.35089 15.4766 1.35089 15.0788V3.0788C1.35089 2.68097 1.50893 2.29944 1.79023 2.01814C2.07154 1.73683 2.45307 1.5788 2.85089 1.5788H4.85089C4.9835 1.5788 5.11068 1.63147 5.20444 1.72524C5.29821 1.81901 5.35089 1.94619 5.35089 2.0788C5.35089 2.2114 5.29821 2.33858 5.20444 2.43235C5.11068 2.52612 4.9835 2.5788 4.85089 2.5788H2.85089ZM9.35089 2.0788C9.35089 1.94619 9.40357 1.81901 9.49734 1.72524C9.59111 1.63147 9.71828 1.5788 9.85089 1.5788H11.8509C12.2487 1.5788 12.6302 1.73683 12.9116 2.01814C13.1929 2.29944 13.3509 2.68097 13.3509 3.0788V4.0788C13.3509 4.2114 13.2982 4.33858 13.2044 4.43235C13.1107 4.52612 12.9835 4.5788 12.8509 4.5788C12.7183 4.5788 12.5911 4.52612 12.4973 4.43235C12.4036 4.33858 12.3509 4.2114 12.3509 4.0788V3.0788C12.3509 2.94619 12.2982 2.81901 12.2044 2.72524C12.1107 2.63147 11.9835 2.5788 11.8509 2.5788H9.85089C9.71828 2.5788 9.59111 2.52612 9.49734 2.43235C9.40357 2.33858 9.35089 2.2114 9.35089 2.0788Z" fill="#E0DFDF"/>
<path fill-rule="evenodd" clip-rule="evenodd" d="M4.35089 2.0788C4.35089 1.68097 4.50893 1.29944 4.79023 1.01814C5.07154 0.736832 5.45307 0.578796 5.85089 0.578796L8.85089 0.578796C9.24872 0.578796 9.63025 0.736832 9.91155 1.01814C10.1929 1.29944 10.3509 1.68097 10.3509 2.0788C10.3509 2.47662 10.1929 2.85815 9.91155 3.13946C9.63025 3.42076 9.24872 3.5788 8.85089 3.5788H5.85089C5.45307 3.5788 5.07154 3.42076 4.79023 3.13946C4.50893 2.85815 4.35089 2.47662 4.35089 2.0788ZM5.85089 1.5788C5.71828 1.5788 5.59111 1.63147 5.49734 1.72524C5.40357 1.81901 5.35089 1.94619 5.35089 2.0788C5.35089 2.2114 5.40357 2.33858 5.49734 2.43235C5.59111 2.52612 5.71828 2.5788 5.85089 2.5788H8.85089C8.9835 2.5788 9.11068 2.52612 9.20444 2.43235C9.29821 2.33858 9.35089 2.2114 9.35089 2.0788C9.35089 1.94619 9.29821 1.81901 9.20444 1.72524C9.11068 1.63147 8.9835 1.5788 8.85089 1.5788H5.85089Z" fill="#E0DFDF"/>
<path fill-rule="evenodd" clip-rule="evenodd" d="M7.35089 7.0788C7.35089 6.68097 7.50893 6.29944 7.79023 6.01814C8.07154 5.73683 8.45307 5.5788 8.85089 5.5788H13.8509C14.2487 5.5788 14.6302 5.73683 14.9116 6.01814C15.1929 6.29944 15.3509 6.68097 15.3509 7.0788V15.0788C15.3509 15.4766 15.1929 15.8582 14.9116 16.1395C14.6302 16.4208 14.2487 16.5788 13.8509 16.5788H8.85089C8.45307 16.5788 8.07154 16.4208 7.79023 16.1395C7.50893 15.8582 7.35089 15.4766 7.35089 15.0788V7.0788ZM8.85089 6.5788C8.71828 6.5788 8.59111 6.63147 8.49734 6.72524C8.40357 6.81901 8.35089 6.94619 8.35089 7.0788V15.0788C8.35089 15.2114 8.40357 15.3386 8.49734 15.4324C8.59111 15.5261 8.71828 15.5788 8.85089 15.5788H13.8509C13.9835 15.5788 14.1107 15.5261 14.2044 15.4324C14.2982 15.3386 14.3509 15.2114 14.3509 15.0788V7.0788C14.3509 6.94619 14.2982 6.81901 14.2044 6.72524C14.1107 6.63147 13.9835 6.5788 13.8509 6.5788H8.85089Z" fill="#60CDFF"/>
</g>
<defs>
<clipPath id="clip0_13_12874">
<rect width="16" height="16" fill="white" transform="translate(0.350891 0.578796)"/>
</clipPath>
</defs>
</svg>
