<svg width="17" height="17" viewBox="0 0 17 17" fill="none" xmlns="http://www.w3.org/2000/svg">
<g clip-path="url(#clip0_13_12894)">
<path d="M15.3509 2.5788C15.4835 2.5788 15.6107 2.63147 15.7044 2.72524C15.7982 2.81901 15.8509 2.94619 15.8509 3.0788C15.8509 3.2114 15.7982 3.33858 15.7044 3.43235C15.6107 3.52612 15.4835 3.5788 15.3509 3.5788H14.7969L13.5009 14.8088C13.4445 15.2962 13.2108 15.7458 12.8445 16.0722C12.4781 16.3986 12.0045 16.5789 11.5139 16.5788H5.18789C4.69724 16.5789 4.22368 16.3986 3.85731 16.0722C3.49094 15.7458 3.25732 15.2962 3.20089 14.8088L1.90389 3.5788H1.35089C1.23387 3.57884 1.12053 3.53782 1.03063 3.46291C0.940731 3.38799 0.879956 3.28391 0.858891 3.1688L0.850891 3.0788C0.850891 2.94619 0.90357 2.81901 0.997338 2.72524C1.09111 2.63147 1.21828 2.5788 1.35089 2.5788H15.3509ZM13.7889 3.5788H2.91189L4.19489 14.6938C4.22309 14.9374 4.33983 15.1622 4.52291 15.3253C4.70599 15.4885 4.94265 15.5787 5.18789 15.5788H11.5139C11.7591 15.5787 11.9958 15.4885 12.1789 15.3253C12.3619 15.1622 12.4787 14.9374 12.5069 14.6938L13.7889 3.5788Z" fill="#E0DFDF"/>
<path fill-rule="evenodd" clip-rule="evenodd" d="M8.35089 1.5788C7.95307 1.5788 7.57154 1.73683 7.29023 2.01814C7.00893 2.29944 6.85089 2.68097 6.85089 3.0788H5.85089C5.85089 2.41576 6.11428 1.77987 6.58312 1.31103C7.05197 0.842188 7.68785 0.578796 8.35089 0.578796C9.01393 0.578796 9.64982 0.842188 10.1187 1.31103C10.5875 1.77987 10.8509 2.41576 10.8509 3.0788H9.85089C9.85089 2.68097 9.69286 2.29944 9.41155 2.01814C9.13025 1.73683 8.74872 1.5788 8.35089 1.5788ZM6.85089 6.5788C6.9835 6.5788 7.11068 6.63147 7.20444 6.72524C7.29821 6.81901 7.35089 6.94619 7.35089 7.0788V12.0788C7.35089 12.2114 7.29821 12.3386 7.20444 12.4324C7.11068 12.5261 6.9835 12.5788 6.85089 12.5788C6.71828 12.5788 6.59111 12.5261 6.49734 12.4324C6.40357 12.3386 6.35089 12.2114 6.35089 12.0788V7.0788C6.35089 6.94619 6.40357 6.81901 6.49734 6.72524C6.59111 6.63147 6.71828 6.5788 6.85089 6.5788ZM9.85089 6.5788C9.9835 6.5788 10.1107 6.63147 10.2044 6.72524C10.2982 6.81901 10.3509 6.94619 10.3509 7.0788V12.0788C10.3509 12.2114 10.2982 12.3386 10.2044 12.4324C10.1107 12.5261 9.9835 12.5788 9.85089 12.5788C9.71828 12.5788 9.59111 12.5261 9.49734 12.4324C9.40357 12.3386 9.35089 12.2114 9.35089 12.0788V7.0788C9.35089 6.94619 9.40357 6.81901 9.49734 6.72524C9.59111 6.63147 9.71828 6.5788 9.85089 6.5788Z" fill="#E0DFDF"/>
</g>
<defs>
<clipPath id="clip0_13_12894">
<rect width="16" height="16" fill="white" transform="translate(0.350891 0.578796)"/>
</clipPath>
</defs>
</svg>
