<svg width="17" height="17" viewBox="0 0 17 17" fill="none" xmlns="http://www.w3.org/2000/svg">
<g clip-path="url(#clip0_13_12881)">
<path fill-rule="evenodd" clip-rule="evenodd" d="M14.3509 3.5788H12.3509V2.5788H14.3509C14.8813 2.5788 15.39 2.78951 15.7651 3.16458C16.1402 3.53966 16.3509 4.04836 16.3509 4.5788V12.5788C16.3509 13.1092 16.1402 13.6179 15.7651 13.993C15.39 14.3681 14.8813 14.5788 14.3509 14.5788H12.3509V13.5788H14.3509C14.6161 13.5788 14.8705 13.4734 15.058 13.2859C15.2455 13.0984 15.3509 12.844 15.3509 12.5788V4.5788C15.3509 4.31358 15.2455 4.05923 15.058 3.87169C14.8705 3.68415 14.6161 3.5788 14.3509 3.5788Z" fill="#E0DFDF"/>
<path fill-rule="evenodd" clip-rule="evenodd" d="M2.35089 3.5788C2.08567 3.5788 1.83132 3.68415 1.64378 3.87169C1.45625 4.05923 1.35089 4.31358 1.35089 4.5788V12.5788C1.35089 12.844 1.45625 13.0984 1.64378 13.2859C1.83132 13.4734 2.08567 13.5788 2.35089 13.5788H9.35089V14.5788H2.35089C1.82046 14.5788 1.31175 14.3681 0.936678 13.993C0.561605 13.6179 0.350891 13.1092 0.350891 12.5788V4.5788C0.350891 4.04836 0.561605 3.53966 0.936678 3.16458C1.31175 2.78951 1.82046 2.5788 2.35089 2.5788H9.35089V3.5788H2.35089Z" fill="#E0DFDF"/>
<path fill-rule="evenodd" clip-rule="evenodd" d="M8.35089 1.0788C8.35089 0.946188 8.40357 0.819011 8.49734 0.725243C8.59111 0.631475 8.71828 0.578796 8.85089 0.578796H12.8509C12.9835 0.578796 13.1107 0.631475 13.2044 0.725243C13.2982 0.819011 13.3509 0.946188 13.3509 1.0788C13.3509 1.2114 13.2982 1.33858 13.2044 1.43235C13.1107 1.52612 12.9835 1.5788 12.8509 1.5788H11.3509V15.5788H12.8509C12.9835 15.5788 13.1107 15.6315 13.2044 15.7252C13.2982 15.819 13.3509 15.9462 13.3509 16.0788C13.3509 16.2114 13.2982 16.3386 13.2044 16.4324C13.1107 16.5261 12.9835 16.5788 12.8509 16.5788H8.85089C8.71828 16.5788 8.59111 16.5261 8.49734 16.4324C8.40357 16.3386 8.35089 16.2114 8.35089 16.0788C8.35089 15.9462 8.40357 15.819 8.49734 15.7252C8.59111 15.6315 8.71828 15.5788 8.85089 15.5788H10.3509V1.5788H8.85089C8.71828 1.5788 8.59111 1.52612 8.49734 1.43235C8.40357 1.33858 8.35089 1.2114 8.35089 1.0788Z" fill="#60CDFF"/>
<path d="M2.35089 8.5788C2.35089 8.31358 2.45625 8.05923 2.64378 7.87169C2.83132 7.68415 3.08567 7.5788 3.35089 7.5788H9.35089V9.5788H3.35089C3.08567 9.5788 2.83132 9.47344 2.64378 9.2859C2.45625 9.09837 2.35089 8.84401 2.35089 8.5788Z" fill="#60CDFF"/>
</g>
<defs>
<clipPath id="clip0_13_12881">
<rect width="16" height="16" fill="white" transform="translate(0.350891 0.578796)"/>
</clipPath>
</defs>
</svg>
