<svg width="17" height="17" viewBox="0 0 17 17" fill="none" xmlns="http://www.w3.org/2000/svg">
<g clip-path="url(#clip0_13_12901)">
<path fill-rule="evenodd" clip-rule="evenodd" d="M11.8509 2.5788C11.9835 2.5788 12.1107 2.63147 12.2044 2.72524C12.2982 2.81901 12.3509 2.94619 12.3509 3.0788V14.0788C12.3509 14.2114 12.2982 14.3386 12.2044 14.4324C12.1107 14.5261 11.9835 14.5788 11.8509 14.5788C11.7183 14.5788 11.5911 14.5261 11.4973 14.4324C11.4036 14.3386 11.3509 14.2114 11.3509 14.0788V3.0788C11.3509 2.94619 11.4036 2.81901 11.4973 2.72524C11.5911 2.63147 11.7183 2.5788 11.8509 2.5788Z" fill="#60CDFF"/>
<path fill-rule="evenodd" clip-rule="evenodd" d="M7.49689 9.72477C7.54334 9.67821 7.59851 9.64127 7.65926 9.61606C7.72 9.59086 7.78512 9.57788 7.85089 9.57788C7.91666 9.57788 7.98178 9.59086 8.04253 9.61606C8.10327 9.64127 8.15845 9.67821 8.20489 9.72477L11.8509 13.3718L15.4969 9.72477C15.5908 9.63089 15.7181 9.57814 15.8509 9.57814C15.9837 9.57814 16.111 9.63089 16.2049 9.72477C16.2988 9.81866 16.3515 9.946 16.3515 10.0788C16.3515 10.2116 16.2988 10.3389 16.2049 10.4328L12.2049 14.4328C12.1584 14.4793 12.1033 14.5163 12.0425 14.5415C11.9818 14.5667 11.9167 14.5797 11.8509 14.5797C11.7851 14.5797 11.72 14.5667 11.6593 14.5415C11.5985 14.5163 11.5433 14.4793 11.4969 14.4328L7.49689 10.4328C7.45033 10.3863 7.41339 10.3312 7.38818 10.2704C7.36297 10.2097 7.35 10.1445 7.35 10.0788C7.35 10.013 7.36297 9.94789 7.38818 9.88714C7.41339 9.8264 7.45033 9.77122 7.49689 9.72477Z" fill="#60CDFF"/>
<path fill-rule="evenodd" clip-rule="evenodd" d="M4.85089 2.5788C4.9835 2.5788 5.11068 2.63147 5.20444 2.72524C5.29821 2.81901 5.35089 2.94619 5.35089 3.0788V14.0788C5.35089 14.2114 5.29821 14.3386 5.20444 14.4324C5.11068 14.5261 4.9835 14.5788 4.85089 14.5788C4.71828 14.5788 4.59111 14.5261 4.49734 14.4324C4.40357 14.3386 4.35089 14.2114 4.35089 14.0788V3.0788C4.35089 2.94619 4.40357 2.81901 4.49734 2.72524C4.59111 2.63147 4.71828 2.5788 4.85089 2.5788Z" fill="#E0DFDF"/>
<path fill-rule="evenodd" clip-rule="evenodd" d="M4.49689 2.72477C4.54334 2.67821 4.59851 2.64127 4.65926 2.61606C4.72 2.59086 4.78512 2.57788 4.85089 2.57788C4.91666 2.57788 4.98178 2.59086 5.04253 2.61606C5.10327 2.64127 5.15845 2.67821 5.20489 2.72477L9.20489 6.72477C9.25138 6.77126 9.28826 6.82645 9.31341 6.88719C9.33857 6.94793 9.35152 7.01303 9.35152 7.07877C9.35152 7.14452 9.33857 7.20962 9.31341 7.27036C9.28826 7.3311 9.25138 7.38629 9.20489 7.43277C9.1584 7.47926 9.10321 7.51614 9.04247 7.5413C8.98174 7.56646 8.91663 7.57941 8.85089 7.57941C8.78515 7.57941 8.72005 7.56646 8.65931 7.5413C8.59857 7.51614 8.54338 7.47926 8.49689 7.43277L4.85089 3.78577L1.20489 7.43277C1.1584 7.47926 1.10321 7.51614 1.04247 7.5413C0.981735 7.56646 0.916635 7.57941 0.850891 7.57941C0.785148 7.57941 0.720047 7.56646 0.659308 7.5413C0.598569 7.51614 0.543379 7.47926 0.496891 7.43277C0.450403 7.38629 0.413527 7.3311 0.388368 7.27036C0.363209 7.20962 0.35026 7.14452 0.35026 7.07877C0.35026 7.01303 0.363209 6.94793 0.388368 6.88719C0.413527 6.82645 0.450403 6.77126 0.496891 6.72477L4.49689 2.72477Z" fill="#E0DFDF"/>
</g>
<defs>
<clipPath id="clip0_13_12901">
<rect width="16" height="16" fill="white" transform="translate(0.350891 0.578796)"/>
</clipPath>
</defs>
</svg>
