<svg width="17" height="17" viewBox="0 0 17 17" fill="none" xmlns="http://www.w3.org/2000/svg">
<path fill-rule="evenodd" clip-rule="evenodd" d="M1.35089 3.5788C1.35089 3.04836 1.5616 2.53966 1.93668 2.16458C2.31175 1.78951 2.82046 1.5788 3.35089 1.5788H5.35089C5.88132 1.5788 6.39003 1.78951 6.7651 2.16458C7.14018 2.53966 7.35089 3.04836 7.35089 3.5788V5.5788C7.35089 6.10923 7.14018 6.61794 6.7651 6.99301C6.39003 7.36808 5.88132 7.5788 5.35089 7.5788H3.35089C2.82046 7.5788 2.31175 7.36808 1.93668 6.99301C1.5616 6.61794 1.35089 6.10923 1.35089 5.5788V3.5788ZM3.35089 2.5788C3.08567 2.5788 2.83132 2.68415 2.64378 2.87169C2.45625 3.05923 2.35089 3.31358 2.35089 3.5788V5.5788C2.35089 5.84401 2.45625 6.09837 2.64378 6.2859C2.83132 6.47344 3.08567 6.5788 3.35089 6.5788H5.35089C5.61611 6.5788 5.87046 6.47344 6.058 6.2859C6.24553 6.09837 6.35089 5.84401 6.35089 5.5788V3.5788C6.35089 3.31358 6.24553 3.05923 6.058 2.87169C5.87046 2.68415 5.61611 2.5788 5.35089 2.5788H3.35089Z" fill="#E0DFDF"/>
<path fill-rule="evenodd" clip-rule="evenodd" d="M9.35089 3.5788C9.35089 3.04836 9.56161 2.53966 9.93668 2.16458C10.3118 1.78951 10.8205 1.5788 11.3509 1.5788H13.3509C13.8813 1.5788 14.39 1.78951 14.7651 2.16458C15.1402 2.53966 15.3509 3.04836 15.3509 3.5788V5.5788C15.3509 6.10923 15.1402 6.61794 14.7651 6.99301C14.39 7.36808 13.8813 7.5788 13.3509 7.5788H11.3509C10.8205 7.5788 10.3118 7.36808 9.93668 6.99301C9.56161 6.61794 9.35089 6.10923 9.35089 5.5788V3.5788ZM11.3509 2.5788C11.0857 2.5788 10.8313 2.68415 10.6438 2.87169C10.4562 3.05923 10.3509 3.31358 10.3509 3.5788V5.5788C10.3509 5.84401 10.4562 6.09837 10.6438 6.2859C10.8313 6.47344 11.0857 6.5788 11.3509 6.5788H13.3509C13.6161 6.5788 13.8705 6.47344 14.058 6.2859C14.2455 6.09837 14.3509 5.84401 14.3509 5.5788V3.5788C14.3509 3.31358 14.2455 3.05923 14.058 2.87169C13.8705 2.68415 13.6161 2.5788 13.3509 2.5788H11.3509Z" fill="#E0DFDF"/>
<path fill-rule="evenodd" clip-rule="evenodd" d="M1.35089 11.5788C1.35089 11.0484 1.5616 10.5397 1.93668 10.1646C2.31175 9.78951 2.82046 9.5788 3.35089 9.5788H5.35089C5.88132 9.5788 6.39003 9.78951 6.7651 10.1646C7.14018 10.5397 7.35089 11.0484 7.35089 11.5788V13.5788C7.35089 14.1092 7.14018 14.6179 6.7651 14.993C6.39003 15.3681 5.88132 15.5788 5.35089 15.5788H3.35089C2.82046 15.5788 2.31175 15.3681 1.93668 14.993C1.5616 14.6179 1.35089 14.1092 1.35089 13.5788V11.5788ZM3.35089 10.5788C3.08567 10.5788 2.83132 10.6842 2.64378 10.8717C2.45625 11.0592 2.35089 11.3136 2.35089 11.5788V13.5788C2.35089 13.844 2.45625 14.0984 2.64378 14.2859C2.83132 14.4734 3.08567 14.5788 3.35089 14.5788H5.35089C5.61611 14.5788 5.87046 14.4734 6.058 14.2859C6.24553 14.0984 6.35089 13.844 6.35089 13.5788V11.5788C6.35089 11.3136 6.24553 11.0592 6.058 10.8717C5.87046 10.6842 5.61611 10.5788 5.35089 10.5788H3.35089Z" fill="#E0DFDF"/>
<path fill-rule="evenodd" clip-rule="evenodd" d="M9.35089 11.5788C9.35089 11.0484 9.56161 10.5397 9.93668 10.1646C10.3118 9.78951 10.8205 9.5788 11.3509 9.5788H13.3509C13.8813 9.5788 14.39 9.78951 14.7651 10.1646C15.1402 10.5397 15.3509 11.0484 15.3509 11.5788V13.5788C15.3509 14.1092 15.1402 14.6179 14.7651 14.993C14.39 15.3681 13.8813 15.5788 13.3509 15.5788H11.3509C10.8205 15.5788 10.3118 15.3681 9.93668 14.993C9.56161 14.6179 9.35089 14.1092 9.35089 13.5788V11.5788ZM11.3509 10.5788C11.0857 10.5788 10.8313 10.6842 10.6438 10.8717C10.4562 11.0592 10.3509 11.3136 10.3509 11.5788V13.5788C10.3509 13.844 10.4562 14.0984 10.6438 14.2859C10.8313 14.4734 11.0857 14.5788 11.3509 14.5788H13.3509C13.6161 14.5788 13.8705 14.4734 14.058 14.2859C14.2455 14.0984 14.3509 13.844 14.3509 13.5788V11.5788C14.3509 11.3136 14.2455 11.0592 14.058 10.8717C13.8705 10.6842 13.6161 10.5788 13.3509 10.5788H11.3509Z" fill="#E0DFDF"/>
</svg>
